<svg width="22" height="22" viewBox="0 0 22 22" fill="none" xmlns="http://www.w3.org/2000/svg">
<path d="M16.3983 0.064655C16.553 0.128617 16.6853 0.23705 16.7784 0.376229C16.8715 0.515409 16.9212 0.679076 16.9212 0.846516V5.07737H21.1523C21.3199 5.07707 21.4838 5.12653 21.6232 5.21949C21.7626 5.31245 21.8713 5.44471 21.9355 5.59952C21.9997 5.75432 22.0164 5.92469 21.9837 6.08903C21.9509 6.25338 21.87 6.40428 21.7514 6.52263L18.3665 9.90731C18.2878 9.98584 18.1944 10.0481 18.0916 10.0905C17.9888 10.1329 17.8786 10.1546 17.7674 10.1544H13.0405L11.7881 11.4084C11.855 11.6593 11.8634 11.9222 11.8125 12.1768C11.7617 12.4315 11.6529 12.671 11.4948 12.8769C11.3366 13.0829 11.1332 13.2497 10.9003 13.3645C10.6674 13.4793 10.4112 13.539 10.1515 13.5391C9.70267 13.5391 9.27219 13.3608 8.9548 13.0434C8.63741 12.726 8.4591 12.2956 8.4591 11.8467L8.46079 11.7689C8.4724 11.5161 8.54056 11.2691 8.66025 11.0461C8.77993 10.8232 8.94811 10.6299 9.15239 10.4805C9.35667 10.3311 9.59185 10.2294 9.84062 10.1829C10.0894 10.1365 10.3454 10.1464 10.5899 10.2119L11.8439 8.95791V4.2312C11.8437 4.12 11.8655 4.00986 11.9079 3.90706C11.9503 3.80427 12.0125 3.71084 12.091 3.63211L15.4759 0.247428C15.5943 0.129163 15.7452 0.0486744 15.9093 0.0161409C16.0735 -0.0163926 16.2437 0.000490386 16.3983 0.064655ZM17.4171 8.46205L19.1095 6.76971H16.075C15.8506 6.76971 15.6353 6.68056 15.4766 6.52187C15.3179 6.36318 15.2288 6.14796 15.2288 5.92354V2.88917L13.5364 4.58151V8.46205H17.4171ZM20.213 10.4522C20.505 12.5594 20.1278 14.7051 19.1345 16.5864C18.1413 18.4677 16.5823 19.9895 14.6776 20.9371C12.7728 21.8846 10.6186 22.2101 8.5189 21.8674C6.41924 21.5247 4.48023 20.5313 2.97561 19.0273C1.47098 17.5234 0.476746 15.5849 0.133247 13.4854C-0.210252 11.386 0.114338 9.23172 1.0612 7.32669C2.00806 5.42167 3.52936 3.86213 5.41034 2.86823C7.29132 1.87434 9.43697 1.49629 11.5444 1.78746L10.8962 2.43562C10.6279 2.7039 10.4232 3.0289 10.2971 3.38672L10.1515 3.38503C8.47173 3.38528 6.83002 3.88544 5.43545 4.82182C4.04088 5.7582 2.95657 7.08842 2.32059 8.64309C1.68462 10.1978 1.52575 11.9065 1.86424 13.5518C2.20272 15.197 3.02323 16.7043 4.22129 17.8817C5.41934 19.0591 6.94072 19.8533 8.59168 20.1632C10.2426 20.4731 11.9485 20.2846 13.492 19.6218C15.0354 18.959 16.3467 17.8518 17.2588 16.4413C18.1709 15.0307 18.6425 13.3807 18.6136 11.7012C18.9701 11.5751 19.2939 11.371 19.5614 11.1038L20.2113 10.4522H20.213ZM10.1515 5.92354C8.97997 5.92354 7.83473 6.27093 6.86061 6.92178C5.8865 7.57263 5.12728 8.4977 4.67894 9.58002C4.23061 10.6623 4.1133 11.8533 4.34186 13.0023C4.57042 14.1513 5.13458 15.2067 5.96299 16.0351C6.79141 16.8634 7.84687 17.4276 8.99591 17.6561C10.145 17.8847 11.336 17.7674 12.4183 17.319C13.5007 16.8707 14.4258 16.1115 15.0767 15.1375C15.7276 14.1634 16.075 13.0182 16.075 11.8467H14.3826C14.3826 12.6835 14.1344 13.5015 13.6695 14.1973C13.2046 14.893 12.5438 15.4353 11.7707 15.7555C10.9976 16.0758 10.1468 16.1595 9.32609 15.9963C8.50534 15.833 7.75144 15.4301 7.15971 14.8384C6.56799 14.2467 6.16502 13.4928 6.00177 12.6721C5.83851 11.8514 5.9223 11.0007 6.24254 10.2277C6.56278 9.45457 7.10508 8.7938 7.80087 8.32891C8.49667 7.86402 9.3147 7.61588 10.1515 7.61588V5.92354Z" fill="#2DA9C2"/>
</svg>
